<svg version="1.2" xmlns="http://www.w3.org/2000/svg" viewBox="0 0 467 177" width="467" height="177">
	<title>icons8-logo-50-svg</title>
	<style>
		tspan { white-space:pre } 
		.s0 { fill: #01b9f3 } 
		.t1 { font-size: 54px;fill: #000000;font-weight: 500;font-family: "DMSans-Medium", "DM Sans" } 
	</style>
	<g id="Layer">
		<g id="Layer">
			<path id="Layer" fill-rule="evenodd" class="s0" d="m137.5 65.5q-3.9-1.9-7.9-3.4c-3.4-29.3-20.4-51.6-40.9-51.6-22.9 0-41.5 28-41.5 62.3 0 17.5 5 33.3 12.8 44.6 1.9-0.8 3.9-1.2 6.1-1.2 4.7 0 8.7 1.9 11.3 4.8 2.6 2.9 3.8 6.6 3.8 10.3 0 3.7-1.2 7.4-3.8 10.3-2.6 2.9-6.6 4.8-11.3 4.8-4.7 0-8.8-1.9-11.3-4.8-2.6-2.9-3.8-6.6-3.8-10.3 0-3.3 1-6.7 3.2-9.5-8.9-12.6-14.5-29.8-14.5-49 0-38.5 22-69.8 49-69.8 25.3 0 46.2 27.4 48.8 62.5zm-45-8.6c1.7 1.9 2.8 4.3 3.3 6.7 14.9-0.5 31.4 3.9 46.4 12.9 33.2 20 49.4 55.6 36.1 79.6-5 9.1-13.7 15.5-25 18.6-4.8 1.2-10 1.9-15.3 1.9-12.3 0-25.5-3.4-38.1-9.7 2.4-1.7 4.8-3.3 7-5.1 15.3 6.9 31.3 9.1 44.4 5.6 9.3-2.5 16.4-7.7 20.5-15 11.3-20.4-3.7-51.5-33.5-69.4-13.9-8.4-29.1-12.3-42.6-11.8-0.6 2.3-1.6 4.4-3.2 6.2-2.6 2.9-6.6 4.8-11.3 4.8-4.7 0-8.8-1.9-11.3-4.8-2.6-2.9-3.8-6.6-3.8-10.3 0-3.6 1.2-7.3 3.8-10.2 2.5-2.9 6.6-4.8 11.3-4.8 4.7 0 8.7 1.9 11.3 4.8zm-17 5c-1.2 1.3-1.9 3.3-1.9 5.2 0 2 0.7 4 1.9 5.3 1.2 1.4 2.8 2.3 5.7 2.3 2.8 0 4.4-0.9 5.6-2.3 1.2-1.3 1.9-3.3 1.9-5.3 0-1.9-0.7-3.9-1.9-5.2-1.2-1.4-2.8-2.3-5.6-2.3-2.9 0-4.5 0.9-5.7 2.3zm-41.5 30.3c-21.1 18.1-30.4 43-20.8 60.2 4.1 7.3 11.1 12.5 20.5 15 15.8 4.2 35.9 0.3 53.8-10.5 15.2-9.1 26.4-21.7 32.3-34.6-1.8-0.8-3.4-1.9-4.7-3.4-2.5-2.9-3.7-6.6-3.7-10.2 0-3.7 1.2-7.4 3.7-10.3 2.6-2.9 6.6-4.8 11.3-4.8 4.8 0 8.8 1.9 11.4 4.8 2.5 2.9 3.7 6.6 3.7 10.3 0 3.6-1.2 7.3-3.7 10.2-2.5 2.8-6.2 4.6-10.5 4.8-6.3 14.9-18.7 29.4-35.9 39.7-14.3 8.6-30.1 13.2-44.4 13.2-5.3 0-10.5-0.7-15.3-2-11.3-3-20-9.4-25.1-18.5-11.8-21.4-0.2-52.1 26.1-72.6q0.5 4.4 1.3 8.7zm86.8 11.2c-1.2 1.3-1.9 3.3-1.9 5.3 0 1.9 0.7 3.9 1.9 5.2 1.2 1.4 2.8 2.3 5.6 2.3 2.9 0 4.5-0.9 5.7-2.3 1.2-1.3 1.9-3.3 1.9-5.2 0-2-0.7-4-1.9-5.3-1.2-1.4-2.8-2.3-5.7-2.3-2.8 0-4.4 0.9-5.6 2.3zm-60.4 22.6c-1.2 1.4-1.9 3.3-1.9 5.3 0 2 0.7 3.9 1.9 5.3 1.2 1.3 2.8 2.2 5.7 2.2 2.8 0 4.4-0.9 5.6-2.2 1.2-1.4 1.9-3.3 1.9-5.3 0-2-0.7-3.9-1.9-5.3-1.2-1.3-2.8-2.3-5.6-2.3-2.9 0-4.5 1-5.7 2.3z"/>
		</g>
		<text id="scratchup" style="transform: matrix(1,0,0,1,203,74)" >
			<tspan x="0" y="38.9" class="t1">s</tspan><tspan  y="38.9" class="t1">c</tspan><tspan  y="38.9" class="t1">r</tspan><tspan  y="38.9" class="t1">a</tspan><tspan  y="38.9" class="t1">t</tspan><tspan  y="38.9" class="t1">c</tspan><tspan  y="38.9" class="t1">h</tspan><tspan  y="38.9" class="t1">u</tspan><tspan  y="38.9" class="t1">p
</tspan>
		</text>
	</g>
</svg>